<svg xmlns="http://www.w3.org/2000/svg" width="202.002" height="109.411" viewBox="0 0 202.002 109.411">
  <path id="Icon_awesome-people-carry" data-name="Icon awesome-people-carry" d="M40.4,20.515c8.364,0,15.149-4.594,15.149-10.257S48.766,0,40.4,0,25.253,4.594,25.253,10.257,32.038,20.515,40.4,20.515Zm121.2,0c8.364,0,15.149-4.594,15.149-10.257S169.962,0,161.6,0s-15.149,4.594-15.149,10.257S153.234,20.515,161.6,20.515ZM201.27,100.03,187.383,76.524l-12.972,9.915-.631,3.889,8.742,14.788c1.578,2.671,5.365,4.3,9.374,4.3a14,14,0,0,0,3.756-.492C200.829,107.509,203.353,103.535,201.27,100.03ZM190.476,55.2l-5.839-17.138c-1.452-4.274-5.87-7.864-11.836-9.595a27.828,27.828,0,0,0-17.706.705c-7.164,2.864-12.53,7.372-15.181,12.693l-3.566,7.244-5.05,2.18V30.772c0-1.881-2.272-3.419-5.05-3.419h-50.5c-2.777,0-5.05,1.539-5.05,3.419V51.287l-5.081-2.18-3.566-7.244c-2.62-5.342-8.017-9.83-15.181-12.693a27.838,27.838,0,0,0-17.706-.705c-5.965,1.731-10.384,5.321-11.836,9.595L11.524,55.2c-1.452,4.274.221,8.8,4.545,12.116L37.278,83.533l3.188,19.788c.568,3.483,4.924,6.09,10.037,6.09.379,0,.726-.021,1.1-.043,5.555-.406,9.532-3.782,8.932-7.543L57.351,81.994a12.2,12.2,0,0,0-4.924-7.479L38.761,64.044l5.555-15.023,2.146,4.359c1.294,2.671,3.756,5,7.733,6.966l16.128,6.945a18.5,18.5,0,0,0,5.429,1.068h50.5a18.5,18.5,0,0,0,5.429-1.068l16.128-6.945c3.977-1.966,6.439-4.274,7.733-6.966l2.146-4.359,5.555,15.023L149.573,74.515a12.2,12.2,0,0,0-4.924,7.479l-3.188,19.831c-.6,3.761,3.409,7.137,8.932,7.543.379.021.726.043,1.1.043,5.081,0,9.468-2.586,10.037-6.09l3.188-19.788,21.209-16.219c4.292-3.312,6-7.843,4.545-12.116ZM14.617,76.524.73,100.03c-2.083,3.5.442,7.479,5.618,8.89,5.3,1.41,11.078-.363,13.13-3.8L28.22,90.328l-.631-3.889L14.617,76.524Z" transform="translate(0.001)" fill="#fff"/>
</svg>
