<svg xmlns="http://www.w3.org/2000/svg" width="211.53" height="156.177" viewBox="0 0 211.53 156.177">
  <path id="Icon_map-doctor" data-name="Icon map-doctor" d="M185.474,40.595h-21.7V23.229c0-12.414-12.991-22.509-29.5-22.509H78.7C62.183.72,49.2,10.815,49.2,23.229V40.595h-21.7C12.7,40.595.72,49.2.72,60.323v76.45C.72,147.888,12.7,156.9,27.492,156.9H185.474c14.785,0,26.776-9.008,26.776-20.127V60.323C212.25,49.2,200.259,40.595,185.474,40.595ZM66.823,23.229c0-4.649,5.694-9.218,11.877-9.218h55.575c6.165,0,11.872,4.569,11.872,9.218V40.595H66.823ZM154.961,113.7H124.113v23.26H88.858V113.7H58.009V87.116H88.858V63.855h35.255v23.26h30.848Z" transform="translate(-0.72 -0.72)" fill="#fff"/>
</svg>
